<mxfile host="Electron" agent="Mozilla/5.0 (Windows NT 10.0; Win64; x64) AppleWebKit/537.36 (KHTML, like Gecko) draw.io/24.7.17 Chrome/128.0.6613.36 Electron/32.0.1 Safari/537.36" version="24.7.17">
  <diagram name="Page-1" id="dAhkONWOZzyPbj6_M4uj">
    <mxGraphModel dx="4068" dy="2072" grid="1" gridSize="10" guides="1" tooltips="1" connect="1" arrows="1" fold="1" page="0" pageScale="1" pageWidth="850" pageHeight="1100" math="0" shadow="0">
      <root>
        <mxCell id="0" />
        <mxCell id="1" parent="0" />
        <mxCell id="G13StT0oKIfuGTSCUn5N-1" value="&lt;font style=&quot;font-size: 32px;&quot;&gt;15&lt;/font&gt;" style="ellipse;whiteSpace=wrap;html=1;" parent="1" vertex="1">
          <mxGeometry x="430" y="-40" width="120" height="80" as="geometry" />
        </mxCell>
        <mxCell id="G13StT0oKIfuGTSCUn5N-2" value="&lt;font style=&quot;font-size: 32px;&quot;&gt;9&lt;/font&gt;" style="ellipse;whiteSpace=wrap;html=1;" parent="1" vertex="1">
          <mxGeometry x="80" y="280" width="120" height="80" as="geometry" />
        </mxCell>
        <mxCell id="G13StT0oKIfuGTSCUn5N-3" value="" style="endArrow=none;html=1;rounded=0;entryX=0;entryY=1;entryDx=0;entryDy=0;exitX=0.593;exitY=-0.022;exitDx=0;exitDy=0;exitPerimeter=0;" parent="1" source="G13StT0oKIfuGTSCUn5N-2" target="G13StT0oKIfuGTSCUn5N-1" edge="1">
          <mxGeometry width="50" height="50" relative="1" as="geometry">
            <mxPoint x="160" y="240" as="sourcePoint" />
            <mxPoint x="210" y="190" as="targetPoint" />
          </mxGeometry>
        </mxCell>
        <mxCell id="G13StT0oKIfuGTSCUn5N-5" value="" style="endArrow=none;html=1;rounded=0;exitX=0.419;exitY=-0.011;exitDx=0;exitDy=0;exitPerimeter=0;" parent="1" source="G13StT0oKIfuGTSCUn5N-17" target="G13StT0oKIfuGTSCUn5N-1" edge="1">
          <mxGeometry width="50" height="50" relative="1" as="geometry">
            <mxPoint x="785.9244832157342" y="287.0767953775212" as="sourcePoint" />
            <mxPoint x="440" y="180" as="targetPoint" />
          </mxGeometry>
        </mxCell>
        <mxCell id="G13StT0oKIfuGTSCUn5N-11" value="&lt;font style=&quot;font-size: 32px;&quot;&gt;6&lt;/font&gt;" style="ellipse;whiteSpace=wrap;html=1;" parent="1" vertex="1">
          <mxGeometry x="-240" y="480" width="120" height="80" as="geometry" />
        </mxCell>
        <mxCell id="G13StT0oKIfuGTSCUn5N-12" value="" style="endArrow=none;html=1;rounded=0;entryX=0;entryY=1;entryDx=0;entryDy=0;exitX=0.593;exitY=-0.022;exitDx=0;exitDy=0;exitPerimeter=0;" parent="1" source="G13StT0oKIfuGTSCUn5N-11" target="G13StT0oKIfuGTSCUn5N-2" edge="1">
          <mxGeometry width="50" height="50" relative="1" as="geometry">
            <mxPoint x="-40" y="590" as="sourcePoint" />
            <mxPoint x="67.57359312880749" y="528.2842712474617" as="targetPoint" />
          </mxGeometry>
        </mxCell>
        <mxCell id="G13StT0oKIfuGTSCUn5N-13" value="&lt;font style=&quot;font-size: 32px;&quot;&gt;14&lt;/font&gt;" style="ellipse;whiteSpace=wrap;html=1;" parent="1" vertex="1">
          <mxGeometry x="240" y="450" width="120" height="80" as="geometry" />
        </mxCell>
        <mxCell id="G13StT0oKIfuGTSCUn5N-14" value="" style="endArrow=none;html=1;rounded=0;entryX=1;entryY=1;entryDx=0;entryDy=0;" parent="1" source="G13StT0oKIfuGTSCUn5N-13" target="G13StT0oKIfuGTSCUn5N-2" edge="1">
          <mxGeometry width="50" height="50" relative="1" as="geometry">
            <mxPoint x="110" y="670" as="sourcePoint" />
            <mxPoint x="143.2820117735139" y="533.2820117735137" as="targetPoint" />
          </mxGeometry>
        </mxCell>
        <mxCell id="G13StT0oKIfuGTSCUn5N-15" value="&lt;font style=&quot;font-size: 32px;&quot;&gt;13&lt;/font&gt;" style="ellipse;whiteSpace=wrap;html=1;" parent="1" vertex="1">
          <mxGeometry x="130" y="665" width="120" height="80" as="geometry" />
        </mxCell>
        <mxCell id="G13StT0oKIfuGTSCUn5N-16" value="" style="endArrow=none;html=1;rounded=0;exitX=0.638;exitY=-0.036;exitDx=0;exitDy=0;exitPerimeter=0;" parent="1" source="G13StT0oKIfuGTSCUn5N-15" target="G13StT0oKIfuGTSCUn5N-13" edge="1">
          <mxGeometry width="50" height="50" relative="1" as="geometry">
            <mxPoint x="169" y="627" as="sourcePoint" />
            <mxPoint x="80" y="520" as="targetPoint" />
          </mxGeometry>
        </mxCell>
        <mxCell id="G13StT0oKIfuGTSCUn5N-17" value="&lt;font style=&quot;font-size: 32px;&quot;&gt;20&lt;/font&gt;" style="ellipse;whiteSpace=wrap;html=1;" parent="1" vertex="1">
          <mxGeometry x="840" y="260" width="120" height="80" as="geometry" />
        </mxCell>
        <mxCell id="G13StT0oKIfuGTSCUn5N-18" value="&lt;font style=&quot;font-size: 32px;&quot;&gt;17&lt;/font&gt;" style="ellipse;whiteSpace=wrap;html=1;" parent="1" vertex="1">
          <mxGeometry x="650" y="440" width="120" height="80" as="geometry" />
        </mxCell>
        <mxCell id="G13StT0oKIfuGTSCUn5N-19" value="" style="endArrow=none;html=1;rounded=0;entryX=0;entryY=1;entryDx=0;entryDy=0;exitX=0.593;exitY=-0.022;exitDx=0;exitDy=0;exitPerimeter=0;" parent="1" source="G13StT0oKIfuGTSCUn5N-18" target="G13StT0oKIfuGTSCUn5N-17" edge="1">
          <mxGeometry width="50" height="50" relative="1" as="geometry">
            <mxPoint x="720" y="570" as="sourcePoint" />
            <mxPoint x="827.5735931288075" y="508.2842712474617" as="targetPoint" />
          </mxGeometry>
        </mxCell>
        <mxCell id="G13StT0oKIfuGTSCUn5N-20" value="&lt;font style=&quot;font-size: 32px;&quot;&gt;64&lt;/font&gt;" style="ellipse;whiteSpace=wrap;html=1;" parent="1" vertex="1">
          <mxGeometry x="1160" y="430" width="120" height="80" as="geometry" />
        </mxCell>
        <mxCell id="G13StT0oKIfuGTSCUn5N-21" value="" style="endArrow=none;html=1;rounded=0;entryX=1;entryY=1;entryDx=0;entryDy=0;" parent="1" source="G13StT0oKIfuGTSCUn5N-20" target="G13StT0oKIfuGTSCUn5N-17" edge="1">
          <mxGeometry width="50" height="50" relative="1" as="geometry">
            <mxPoint x="870" y="650" as="sourcePoint" />
            <mxPoint x="903.2820117735139" y="513.2820117735137" as="targetPoint" />
          </mxGeometry>
        </mxCell>
        <mxCell id="G13StT0oKIfuGTSCUn5N-22" value="&lt;font style=&quot;font-size: 32px;&quot;&gt;26&lt;/font&gt;" style="ellipse;whiteSpace=wrap;html=1;" parent="1" vertex="1">
          <mxGeometry x="1000" y="710" width="120" height="80" as="geometry" />
        </mxCell>
        <mxCell id="G13StT0oKIfuGTSCUn5N-23" value="&lt;font style=&quot;font-size: 32px;&quot;&gt;72&lt;/font&gt;" style="ellipse;whiteSpace=wrap;html=1;" parent="1" vertex="1">
          <mxGeometry x="1370" y="665" width="120" height="80" as="geometry" />
        </mxCell>
        <mxCell id="G13StT0oKIfuGTSCUn5N-24" value="" style="endArrow=none;html=1;rounded=0;entryX=0.229;entryY=0.904;entryDx=0;entryDy=0;entryPerimeter=0;exitX=0.683;exitY=0;exitDx=0;exitDy=0;exitPerimeter=0;" parent="1" source="G13StT0oKIfuGTSCUn5N-22" target="G13StT0oKIfuGTSCUn5N-20" edge="1">
          <mxGeometry width="50" height="50" relative="1" as="geometry">
            <mxPoint x="1090" y="670" as="sourcePoint" />
            <mxPoint x="1167" y="550" as="targetPoint" />
          </mxGeometry>
        </mxCell>
        <mxCell id="G13StT0oKIfuGTSCUn5N-25" value="" style="endArrow=none;html=1;rounded=0;entryX=0.762;entryY=0.932;entryDx=0;entryDy=0;entryPerimeter=0;exitX=0.5;exitY=0;exitDx=0;exitDy=0;" parent="1" source="G13StT0oKIfuGTSCUn5N-23" target="G13StT0oKIfuGTSCUn5N-20" edge="1">
          <mxGeometry width="50" height="50" relative="1" as="geometry">
            <mxPoint x="1210" y="708" as="sourcePoint" />
            <mxPoint x="1307" y="540" as="targetPoint" />
          </mxGeometry>
        </mxCell>
        <mxCell id="G13StT0oKIfuGTSCUn5N-26" value="&lt;font style=&quot;font-size: 32px;&quot;&gt;16&lt;/font&gt;" style="ellipse;whiteSpace=wrap;html=1;" parent="1" vertex="1">
          <mxGeometry x="490" y="690" width="120" height="80" as="geometry" />
        </mxCell>
        <mxCell id="G13StT0oKIfuGTSCUn5N-27" value="&lt;font style=&quot;font-size: 32px;&quot;&gt;19&lt;/font&gt;" style="ellipse;whiteSpace=wrap;html=1;" parent="1" vertex="1">
          <mxGeometry x="780" y="710" width="120" height="80" as="geometry" />
        </mxCell>
        <mxCell id="G13StT0oKIfuGTSCUn5N-28" value="" style="endArrow=none;html=1;rounded=0;entryX=0;entryY=1;entryDx=0;entryDy=0;exitX=0.643;exitY=0.029;exitDx=0;exitDy=0;exitPerimeter=0;" parent="1" source="G13StT0oKIfuGTSCUn5N-26" target="G13StT0oKIfuGTSCUn5N-18" edge="1">
          <mxGeometry width="50" height="50" relative="1" as="geometry">
            <mxPoint x="550" y="670" as="sourcePoint" />
            <mxPoint x="687" y="560" as="targetPoint" />
          </mxGeometry>
        </mxCell>
        <mxCell id="G13StT0oKIfuGTSCUn5N-29" value="" style="endArrow=none;html=1;rounded=0;entryX=1;entryY=1;entryDx=0;entryDy=0;exitX=0.345;exitY=0.039;exitDx=0;exitDy=0;exitPerimeter=0;" parent="1" source="G13StT0oKIfuGTSCUn5N-27" target="G13StT0oKIfuGTSCUn5N-18" edge="1">
          <mxGeometry width="50" height="50" relative="1" as="geometry">
            <mxPoint x="710" y="755" as="sourcePoint" />
            <mxPoint x="811" y="571" as="targetPoint" />
          </mxGeometry>
        </mxCell>
        <mxCell id="G13StT0oKIfuGTSCUn5N-30" value="&lt;font style=&quot;font-size: 32px;&quot;&gt;7&lt;/font&gt;" style="ellipse;whiteSpace=wrap;html=1;" parent="1" vertex="1">
          <mxGeometry x="-110" y="665" width="120" height="80" as="geometry" />
        </mxCell>
        <mxCell id="G13StT0oKIfuGTSCUn5N-31" value="" style="endArrow=none;html=1;rounded=0;entryX=1;entryY=1;entryDx=0;entryDy=0;exitX=0.307;exitY=0.045;exitDx=0;exitDy=0;exitPerimeter=0;" parent="1" source="G13StT0oKIfuGTSCUn5N-30" target="G13StT0oKIfuGTSCUn5N-11" edge="1">
          <mxGeometry width="50" height="50" relative="1" as="geometry">
            <mxPoint x="99" y="665" as="sourcePoint" />
            <mxPoint x="-30" y="490" as="targetPoint" />
          </mxGeometry>
        </mxCell>
        <mxCell id="G13StT0oKIfuGTSCUn5N-47" value="&lt;span style=&quot;font-size: 32px;&quot;&gt;20170810 - 20&lt;/span&gt;" style="ellipse;whiteSpace=wrap;html=1;fillColor=#dae8fc;strokeColor=#6c8ebf;" parent="1" vertex="1">
          <mxGeometry x="-520" y="1410" width="450" height="80" as="geometry" />
        </mxCell>
        <mxCell id="G13StT0oKIfuGTSCUn5N-48" value="" style="endArrow=none;html=1;rounded=0;entryX=0.456;entryY=1.046;entryDx=0;entryDy=0;exitX=0.5;exitY=0;exitDx=0;exitDy=0;entryPerimeter=0;" parent="1" source="G13StT0oKIfuGTSCUn5N-47" target="G13StT0oKIfuGTSCUn5N-52" edge="1">
          <mxGeometry width="50" height="50" relative="1" as="geometry">
            <mxPoint x="-270.0000000000001" y="1359.9600000000003" as="sourcePoint" />
            <mxPoint x="-169.2764068711691" y="1110.0042712474458" as="targetPoint" />
          </mxGeometry>
        </mxCell>
        <mxCell id="G13StT0oKIfuGTSCUn5N-49" value="" style="endArrow=none;html=1;rounded=0;entryX=0.61;entryY=0.963;entryDx=0;entryDy=0;entryPerimeter=0;exitX=0.5;exitY=0;exitDx=0;exitDy=0;" parent="1" source="G13StT0oKIfuGTSCUn5N-51" target="G13StT0oKIfuGTSCUn5N-52" edge="1">
          <mxGeometry width="50" height="50" relative="1" as="geometry">
            <mxPoint x="510" y="1380" as="sourcePoint" />
            <mxPoint x="149.96211731364883" y="1152.776151613943" as="targetPoint" />
          </mxGeometry>
        </mxCell>
        <mxCell id="G13StT0oKIfuGTSCUn5N-51" value="&lt;span style=&quot;font-size: 32px;&quot;&gt;20180409 - 10&lt;/span&gt;" style="ellipse;whiteSpace=wrap;html=1;fillColor=#dae8fc;strokeColor=#6c8ebf;" parent="1" vertex="1">
          <mxGeometry x="325" y="1400" width="450" height="80" as="geometry" />
        </mxCell>
        <mxCell id="G13StT0oKIfuGTSCUn5N-52" value="&lt;font style=&quot;font-size: 32px;&quot;&gt;20180211 - 20&lt;/font&gt;" style="ellipse;whiteSpace=wrap;html=1;fillColor=#dae8fc;strokeColor=#6c8ebf;" parent="1" vertex="1">
          <mxGeometry x="-190" y="1020" width="450" height="80" as="geometry" />
        </mxCell>
        <mxCell id="G13StT0oKIfuGTSCUn5N-53" value="&lt;span style=&quot;font-size: 32px;&quot;&gt;20170620 - 20&lt;/span&gt;" style="ellipse;whiteSpace=wrap;html=1;fillColor=#dae8fc;strokeColor=#6c8ebf;" parent="1" vertex="1">
          <mxGeometry x="-790" y="1740" width="450" height="80" as="geometry" />
        </mxCell>
        <mxCell id="G13StT0oKIfuGTSCUn5N-54" value="" style="endArrow=none;html=1;rounded=0;entryX=0.444;entryY=1;entryDx=0;entryDy=0;exitX=0.586;exitY=0.029;exitDx=0;exitDy=0;entryPerimeter=0;exitPerimeter=0;" parent="1" source="G13StT0oKIfuGTSCUn5N-53" target="G13StT0oKIfuGTSCUn5N-47" edge="1">
          <mxGeometry width="50" height="50" relative="1" as="geometry">
            <mxPoint x="-590" y="1796" as="sourcePoint" />
            <mxPoint x="-290" y="1490" as="targetPoint" />
          </mxGeometry>
        </mxCell>
        <mxCell id="G13StT0oKIfuGTSCUn5N-55" value="&lt;font style=&quot;font-size: 34px;&quot;&gt;NumPedidos = 35&lt;/font&gt;" style="rounded=0;whiteSpace=wrap;html=1;" parent="1" vertex="1">
          <mxGeometry x="-1180" y="1740" width="360" height="90" as="geometry" />
        </mxCell>
        <mxCell id="G13StT0oKIfuGTSCUn5N-56" value="&lt;span style=&quot;font-size: 32px;&quot;&gt;20170810 - 20&lt;/span&gt;" style="ellipse;whiteSpace=wrap;html=1;fillColor=#dae8fc;strokeColor=#6c8ebf;" parent="1" vertex="1">
          <mxGeometry x="-710" y="2460" width="450" height="80" as="geometry" />
        </mxCell>
        <mxCell id="G13StT0oKIfuGTSCUn5N-57" value="" style="endArrow=none;html=1;rounded=0;entryX=0.456;entryY=1.046;entryDx=0;entryDy=0;exitX=0.5;exitY=0;exitDx=0;exitDy=0;entryPerimeter=0;" parent="1" source="G13StT0oKIfuGTSCUn5N-56" target="G13StT0oKIfuGTSCUn5N-60" edge="1">
          <mxGeometry width="50" height="50" relative="1" as="geometry">
            <mxPoint x="-435.0000000000001" y="2409.96" as="sourcePoint" />
            <mxPoint x="-334.2764068711691" y="2160.004271247446" as="targetPoint" />
          </mxGeometry>
        </mxCell>
        <mxCell id="G13StT0oKIfuGTSCUn5N-58" value="" style="endArrow=none;html=1;rounded=0;entryX=0.61;entryY=0.963;entryDx=0;entryDy=0;entryPerimeter=0;exitX=0.5;exitY=0;exitDx=0;exitDy=0;" parent="1" source="G13StT0oKIfuGTSCUn5N-59" target="G13StT0oKIfuGTSCUn5N-60" edge="1">
          <mxGeometry width="50" height="50" relative="1" as="geometry">
            <mxPoint x="345" y="2430" as="sourcePoint" />
            <mxPoint x="-15.037882686351168" y="2202.776151613943" as="targetPoint" />
          </mxGeometry>
        </mxCell>
        <mxCell id="G13StT0oKIfuGTSCUn5N-59" value="&lt;span style=&quot;font-size: 32px;&quot;&gt;20180409 - 10&lt;/span&gt;" style="ellipse;whiteSpace=wrap;html=1;fillColor=#dae8fc;strokeColor=#6c8ebf;" parent="1" vertex="1">
          <mxGeometry x="200" y="2460" width="450" height="80" as="geometry" />
        </mxCell>
        <mxCell id="G13StT0oKIfuGTSCUn5N-60" value="&lt;font style=&quot;font-size: 32px;&quot;&gt;20180211 - 20&lt;/font&gt;" style="ellipse;whiteSpace=wrap;html=1;fillColor=#dae8fc;strokeColor=#6c8ebf;" parent="1" vertex="1">
          <mxGeometry x="-355" y="2070" width="450" height="80" as="geometry" />
        </mxCell>
        <mxCell id="G13StT0oKIfuGTSCUn5N-63" value="&lt;font style=&quot;font-size: 34px;&quot;&gt;NumPedidos = 15&lt;/font&gt;" style="rounded=0;whiteSpace=wrap;html=1;" parent="1" vertex="1">
          <mxGeometry x="-1140" y="2450" width="360" height="90" as="geometry" />
        </mxCell>
        <mxCell id="0zef-BCvo9hSGUgL7_ff-1" value="" style="shape=flexArrow;endArrow=classic;html=1;rounded=0;" parent="1" edge="1">
          <mxGeometry width="50" height="50" relative="1" as="geometry">
            <mxPoint x="-400" y="420" as="sourcePoint" />
            <mxPoint x="40" y="300" as="targetPoint" />
          </mxGeometry>
        </mxCell>
        <mxCell id="0zef-BCvo9hSGUgL7_ff-2" value="" style="shape=flexArrow;endArrow=classic;html=1;rounded=0;" parent="1" edge="1">
          <mxGeometry width="50" height="50" relative="1" as="geometry">
            <mxPoint x="-150" y="870" as="sourcePoint" />
            <mxPoint x="110" y="770" as="targetPoint" />
          </mxGeometry>
        </mxCell>
        <mxCell id="neDxEbAaUTSrSzzdbV9P-1" value="&lt;font style=&quot;font-size: 32px;&quot;&gt;8&lt;/font&gt;" style="ellipse;whiteSpace=wrap;html=1;" vertex="1" parent="1">
          <mxGeometry x="990" y="-60" width="120" height="80" as="geometry" />
        </mxCell>
      </root>
    </mxGraphModel>
  </diagram>
</mxfile>
